<?xml version="1.0" encoding="UTF-8" standalone="no"?>
<!-- Created with Inkscape (http://www.inkscape.org/) -->

<svg
   xmlns:dc="http://purl.org/dc/elements/1.1/"
   xmlns:cc="http://creativecommons.org/ns#"
   xmlns:rdf="http://www.w3.org/1999/02/22-rdf-syntax-ns#"
   xmlns:svg="http://www.w3.org/2000/svg"
   xmlns="http://www.w3.org/2000/svg"
   xmlns:sodipodi="http://sodipodi.sourceforge.net/DTD/sodipodi-0.dtd"
   xmlns:inkscape="http://www.inkscape.org/namespaces/inkscape"
   width="744.09448819"
   height="1052.3622047"
   id="svg2"
   version="1.1"
   inkscape:version="0.48.4 r9939"
   sodipodi:docname="New document 1">
  <defs
     id="defs4" />
  <sodipodi:namedview
     id="base"
     pagecolor="#ffffff"
     bordercolor="#666666"
     borderopacity="1.0"
     inkscape:pageopacity="0.0"
     inkscape:pageshadow="2"
     inkscape:zoom="0.49497475"
     inkscape:cx="66.281266"
     inkscape:cy="863.5364"
     inkscape:document-units="px"
     inkscape:current-layer="layer1"
     showgrid="false"
     inkscape:window-width="1366"
     inkscape:window-height="719"
     inkscape:window-x="0"
     inkscape:window-y="0"
     inkscape:window-maximized="1" />
  <metadata
     id="metadata7">
    <rdf:RDF>
      <cc:Work
         rdf:about="">
        <dc:format>image/svg+xml</dc:format>
        <dc:type
           rdf:resource="http://purl.org/dc/dcmitype/StillImage" />
        <dc:title></dc:title>
      </cc:Work>
    </rdf:RDF>
  </metadata>
  <g
     inkscape:label="Layer 1"
     inkscape:groupmode="layer"
     id="layer1">
    <path
       style="fill:none;stroke:#000000;stroke-width:10;stroke-linecap:butt;stroke-linejoin:miter;stroke-miterlimit:4;stroke-opacity:1;stroke-dasharray:none"
       d="m 66.422501,278.2424 c 0,0.57871 -0.578714,1.73614 0,1.73614 0.578712,0 0,-1.15743 0,-1.73614 0,-1.15742 1.157426,-3.47229 0,-3.47229 -5.335471,0 -10.289783,3.47229 -15.625253,3.47229 -1.294042,0 0.821113,-4.38731 1.736138,-3.47229 1.227637,1.22765 0,3.47229 0,5.20843 0,1.15742 0,-2.31485 0,-3.47228 0,-1.19884 -0.263923,-6.41671 0,-6.94456 0.366012,-0.73202 1.37013,-1.00411 1.73614,-1.73614 0.258809,-0.51762 0,-1.15742 0,-1.73613 0,-0.74785 -0.234902,-9.94704 0,-10.41684 0.36601,-0.73202 1.477331,-0.95972 1.736139,-1.73614 0.549016,-1.64705 -0.549015,-3.56138 0,-5.20842 0.409213,-1.22764 1.326927,-2.24465 1.73614,-3.47228 0.183004,-0.54901 0,-1.15742 0,-1.73614 0,-1.15742 0,-2.31485 0,-3.47227 0,-0.57873 0.409211,-1.32694 0,-1.73615 -0.409213,-0.4092 -1.477331,0.51762 -1.73614,0 -0.07724,-0.1545 -0.07946,-10.099 0,-10.41683 0.313852,-1.25541 1.326927,-2.24465 1.73614,-3.47228 0.183004,-0.54901 0,-1.15743 0,-1.73614 0,-1.15743 0,-2.31485 0,-3.47228 0,-4.62971 0,-9.25941 0,-13.88911 0,-12.73168 0,-25.46337 0,-38.19506 0,-6.94456 0,-13.88912 0,-20.83367 2.893565,2.89356 6.3022,5.35079 8.680696,8.68068 0.67274,0.94185 -0.429858,2.39764 0,3.47229 0.774936,1.93734 2.539132,3.34212 3.472279,5.20841 1.636847,3.2737 2.11295,7.01852 3.472278,10.41684 1.78567,4.46418 4.496494,8.07288 6.944553,12.15298 1.331565,2.21926 2.31485,4.6297 3.472287,6.94456 0.578712,1.15742 1.157425,2.31485 1.736137,3.47227 0.578713,1.15743 1.422287,2.21688 1.736138,3.47228 0.280709,1.12287 -0.280722,2.34941 0,3.47229 0.627701,2.5108 2.844574,4.43374 3.472275,6.94455 0.280721,1.12287 -0.366011,2.37425 0,3.47227 0.258809,0.77643 1.282163,1.05517 1.736137,1.73615 0.717807,1.0767 1.157429,2.31485 1.736141,3.47227 0.578713,1.15743 1.422299,2.21688 1.73615,3.47228 0.280709,1.12287 -0.366011,2.37425 0,3.47227 0.258798,0.77643 1.370126,1.00413 1.736138,1.73615 5.242926,10.48587 -0.250267,0.73507 1.736137,8.68069 0.313851,1.2554 1.736139,2.17824 1.736139,3.47229 0,1.29404 -1.736139,2.17823 -1.736139,3.47227 0,1.29404 1.422289,2.21688 1.736139,3.47228 0.75359,3.01436 -0.7536,7.40247 0,10.41684 0.31385,1.2554 1.42229,2.21687 1.73614,3.47227 0.28072,1.12288 -0.36602,2.37425 0,3.47229 0.25881,0.77642 1.28216,1.05516 1.73613,1.73614 0.71782,1.0767 1.32694,2.24464 1.73615,3.47227 0.39805,1.19418 -0.51218,4.18406 0,5.20841 0.36601,0.73203 1.15743,1.15743 1.73614,1.73615 0,1.15743 -0.36601,2.37424 0,3.47228 0.25881,0.77642 1.37013,1.00411 1.73614,1.73614 0.34418,0.68836 -0.35493,4.85348 0,5.20841 0.40921,0.40921 1.73614,-0.57871 1.73614,0 0,0.57871 -1.73614,0.57871 -1.73614,0 0,-0.81842 1.37012,-1.00412 1.73614,-1.73614 0.25881,-0.51762 0,-1.15742 0,-1.73614 0,-1.15742 0,-2.31485 0,-3.47227 0,-1.80546 -0.34142,-9.05116 0,-10.41684 0.31385,-1.2554 1.42228,-2.21687 1.73613,-3.47227 0.64975,-2.59901 -0.5497,-7.66831 0,-10.41684 0.3589,-1.79452 1.37724,-3.41391 1.73614,-5.20843 0.22699,-1.13494 -0.28071,-2.3494 0,-3.47227 0.31385,-1.2554 1.48236,-2.20337 1.73614,-3.47228 0.56748,-2.83738 -0.70179,-5.87353 0,-8.6807 0.31385,-1.2554 1.48236,-2.20337 1.73615,-3.47227 0.55645,-2.78228 -0.55646,-5.89842 0,-8.6807 0.3589,-1.79451 1.43528,-3.40327 1.73614,-5.20841 0.28541,-1.71253 -0.34049,-3.506 0,-5.20843 0.25377,-1.2689 1.42228,-2.21687 1.73613,-3.47227 0.28071,-1.12288 0,-2.31485 0,-3.47228 0,-1.73613 0,-3.47228 0,-5.20842 0,-1.15743 -0.22699,-2.33732 0,-3.47228 0.3589,-1.7945 1.37724,-3.4139 1.73614,-5.20841 0.22699,-1.13495 -0.28072,-2.34941 0,-3.47229 0.31385,-1.2554 1.42229,-2.21687 1.73614,-3.47227 0.28072,-1.12288 0,-2.31485 0,-3.47228 0,-1.73613 0,-3.47228 0,-5.20842 0,-0.57871 -0.183,-1.18713 0,-1.73614 0.40921,-1.22763 1.32693,-2.24464 1.73614,-3.47227 0.3777,-1.13312 0,-8.34109 0,-10.41684 0,-0.57871 -0.40921,-1.32692 0,-1.73614 0.40921,-0.40921 1.73613,0.57871 1.73613,0 0,-0.81843 -1.73613,-0.91772 -1.73613,-1.73614 0,-0.57871 1.73613,-0.57871 1.73613,0 0,0.57872 -1.73613,0.57872 -1.73613,0 0,-0.57871 1.73613,-0.57871 1.73613,0 0,0.57872 -1.15742,0 -1.73613,0"
       id="path2985"
       inkscape:connector-curvature="0" />
    <path
       style="fill:none;stroke:#000000;stroke-width:10;stroke-linecap:butt;stroke-linejoin:miter;stroke-opacity:1;stroke-miterlimit:4;stroke-dasharray:none"
       d="m 172.85714,222.36218 c -6.17625,-1.54406 -3.7509,-1.42857 -7.14285,-1.42857 -0.47619,0 -1.00266,-0.21296 -1.42857,0 -3.53058,1.76529 0.49311,1.42857 -2.85715,1.42857 -0.47619,0 -0.97681,0.15059 -1.42857,0 -1.01015,-0.33672 -1.84699,-1.76529 -2.85714,-1.42857 -1.01015,0.33672 -0.83793,1.97118 -1.42857,2.85714 -1.40141,2.10211 -4.31289,3.61218 -5.71429,5.71429 -0.26414,0.39621 0.15059,0.97682 0,1.42857 -0.33672,1.01015 -1.03312,1.86851 -1.42857,2.85714 -0.55926,1.39815 -0.75514,2.93885 -1.42857,4.28572 -0.30117,0.60234 -1.05502,0.86824 -1.42857,1.42857 -0.59064,0.88596 -0.95238,1.90476 -1.42857,2.85714 -0.47619,0.95238 -1.21975,1.81303 -1.42858,2.85715 -0.46694,2.33471 0,4.7619 0,7.14285 0,0.95238 0,1.90476 0,2.85715 0,0.95238 -0.30116,1.95363 0,2.85714 0.21296,0.63887 1.21562,0.78969 1.42858,1.42857 0.60233,1.80702 -0.46198,3.86639 0,5.71429 0.25825,1.033 0.95238,1.90476 1.42857,2.85714 0.47619,0.95238 0.83793,1.97118 1.42857,2.85714 0.82181,1.23272 3.16988,3.16988 4.28571,4.28572 0.75209,0.75209 3.52274,3.90422 4.28572,4.28571 0.42591,0.21296 1.00265,-0.21296 1.42857,0 0.60234,0.30117 0.78969,1.21561 1.42857,1.42857 1.32344,0.44115 5.77398,-0.45629 7.14286,0 1.01015,0.33672 1.81302,1.21975 2.85714,1.42857 1.40083,0.28017 2.85714,0 4.28571,0 0.95239,0 1.9332,0.23099 2.85715,0 7.35605,-1.83901 -2.61067,-1.46378 7.14285,-2.85714 1.88562,-0.26937 3.82867,0.26937 5.71429,0 1.49071,-0.21296 2.80036,-1.18101 4.28571,-1.42857 11.54982,-1.92497 -1.61273,2.07366 7.14286,-1.42857 1.39814,-0.55926 2.88757,-0.86932 4.28572,-1.42857 1.97727,-0.79091 3.64828,-2.34065 5.71428,-2.85715 0.92395,-0.23098 2.00531,0.42592 2.85714,0 1.20468,-0.60234 1.90477,-1.90476 2.85715,-2.85714 0.47619,-0.47619 2.102,-1.42857 1.42857,-1.42857 -1.50585,0 -2.77987,1.42857 -4.28572,1.42857 -0.67343,0 1.05502,-0.86824 1.42858,-1.42857 0.59064,-0.88596 0.83793,-1.97118 1.42857,-2.85714 0.86696,-1.30046 3.65261,-3.01952 4.28571,-4.28572 0.21296,-0.42592 -0.21296,-1.00265 0,-1.42857 0.30117,-0.60234 1.1274,-0.82623 1.42857,-1.42857 0.21296,-0.42592 -0.21296,-1.00266 0,-1.42857 0.30117,-0.60234 1.42857,-0.75514 1.42857,-1.42857 0,-1.0648 -1.09185,-1.847 -1.42857,-2.85715 -0.31622,-0.94868 0.31623,-3.33703 0,-4.28571 -0.42591,-1.27776 -2.11003,-1.73648 -2.85714,-2.85714 -0.59064,-0.88597 -0.83793,-1.97119 -1.42857,-2.85715 -0.37356,-0.56033 -1.21561,-0.78969 -1.42857,-1.42857 -0.30117,-0.90351 0.30117,-1.95363 0,-2.85714 -0.21296,-0.63888 -0.95238,-0.95238 -1.42857,-1.42857 -0.47619,-0.47619 -0.86824,-1.05502 -1.42858,-1.42857 -0.88596,-0.59065 -2.10422,-0.67565 -2.85714,-1.42858 -0.75292,-0.75292 -0.54261,-2.2665 -1.42857,-2.85714 -0.79243,-0.52829 -1.95363,0.30117 -2.85714,0 -0.63888,-0.21296 -0.86824,-1.05502 -1.42857,-1.42857 -0.88597,-0.59064 -1.90477,-0.95238 -2.85715,-1.42857 -0.95238,-0.47619 -1.94409,-0.88074 -2.85714,-1.42857 -1.47225,-0.88336 -2.75005,-2.08931 -4.28571,-2.85715 -1.34687,-0.67343 -2.88758,-0.86931 -4.28572,-1.42857 -3.80952,-1.52381 -2.40488,-1.90955 -7.14286,-2.85714 -0.93388,-0.18678 -1.9414,-0.26164 -2.85714,0 -2.4657,0.70448 -4.62829,3.36006 -7.14286,2.85714 -2.98989,-0.59798 -4.60584,-4.02294 -7.14285,-5.71428 -0.22984,-0.15323 -4.11222,-0.17351 -4.28572,0 -0.33671,0.33671 0.47619,1.42857 0,1.42857 -0.47619,0 0.47619,-1.42857 0,-1.42857 -0.67343,0 -0.95238,1.90476 -1.42857,1.42857 -0.47619,-0.47619 0.75514,-1.42857 1.42857,-1.42857 0.47619,0 0,0.95238 0,1.42857"
       id="path2987"
       inkscape:connector-curvature="0" />
    <path
       style="fill:none;stroke:#000000;stroke-width:10;stroke-linecap:butt;stroke-linejoin:miter;stroke-miterlimit:4;stroke-opacity:1;stroke-dasharray:none"
       d="m 258.57144,158.07647 c 3.80952,-2.38095 7.07033,-6.05329 11.42857,-7.14285 0.4113,-0.10283 -1.00339,8.57143 1.42857,8.57143 3.01169,0 5.64966,-2.12671 8.57143,-2.85715 1.033,-0.25825 -3.85783,1.79246 -2.85714,1.42857 6.23324,-2.26663 12.01598,-6.13432 18.57142,-7.14285 0.2866,-0.0441 -0.19106,6.3786 0,7.14285 0.25826,1.03301 1.42858,1.79235 1.42858,2.85715 0,1.50584 -1.13325,2.80911 -1.42858,4.28571 -0.37355,1.86777 0,3.80952 0,5.71429 0,3.80952 0,7.61904 0,11.42857 0,1.42857 0,2.85714 0,4.28571 0,1.42857 0.23486,2.87658 0,4.28572 -0.24756,1.48535 -1.13325,2.80911 -1.42857,4.28571 -0.18677,0.93389 0.18678,1.92326 0,2.85714 -0.29532,1.47661 -1.13325,2.80911 -1.42857,4.28572 -0.18678,0.93388 0.18678,1.92325 0,2.85714 -0.29532,1.4766 -1.13325,2.80911 -1.42857,4.28572 -0.37355,1.86777 0.46197,3.86639 0,5.71428 -0.25825,1.033 -1.17032,1.82414 -1.42857,2.85714 -0.57747,2.30987 0.46694,4.80814 0,7.14286 -0.20882,1.04412 -1.17032,1.82414 -1.42857,2.85714 -0.23099,0.92395 0.23098,1.9332 0,2.85715 -0.5165,2.066 -2.18371,3.69398 -2.85715,5.71428 -0.15058,0.45176 0.21296,1.00266 0,1.42857 -0.7619,1.52381 -5.51319,2.95769 0,5.71429 2.12959,1.06479 4.76191,0 7.14286,0 1.42857,0 3.27556,-1.01015 4.28572,0 0.75292,0.75292 -1.09186,1.84699 -1.42858,2.85714 -0.15058,0.45176 0,0.95238 0,1.42857 0,0.95238 -0.42591,3.70898 0,2.85715 10.20132,-20.40264 -4.44768,-2.80316 8.57143,-7.14286 1.01016,-0.33672 -0.67565,-2.10422 -1.42857,-2.85714 -0.33672,-0.33672 0,0.95238 0,1.42857 0,0.64337 0.21738,3.85095 0,4.28571 -0.30117,0.60234 -1.42857,0.75514 -1.42857,1.42857 0,0.67344 1.1274,0.82624 1.42857,1.42858 0.21296,0.42591 0,0.95238 0,1.42857 0,0.47619 0.21296,1.00265 0,1.42857 -0.30117,0.60234 -1.42857,0.75513 -1.42857,1.42857 0,0.67343 1.42857,0.75514 1.42857,1.42857 0,0.47619 -1.42857,-0.47619 -1.42857,0 0,0.67344 1.1274,0.82623 1.42857,1.42857 0.0374,0.0747 0.0374,4.21098 0,4.28572 -0.30117,0.60234 -1.5919,0.77524 -1.42857,1.42857 0.41642,1.66566 2.08931,2.75004 2.85714,4.28571 0.0592,0.11831 0.0613,4.1019 0,4.28572 -0.33671,1.01015 -1.09185,1.84699 -1.42857,2.85714 -0.30117,0.90351 0,1.90476 0,2.85714 0,0.47619 0,0.95238 0,1.42857 0,0.47619 0.21296,1.00266 0,1.42858 -0.30117,0.60233 -0.95238,1.90476 -1.42857,1.42857 -1.06479,-1.0648 -1.90476,-2.85715 -1.42857,-4.28572 8.09524,-0.95238 1.42857,0.47619 1.42857,0 0,-0.47619 1.09185,-0.33672 1.42857,0 0.14286,0.14286 0.14286,4.14286 0,4.28572 -0.33672,0.33671 -1.42857,0.47619 -1.42857,0 0,-0.59795 1.73939,0.37258 2.85714,0 1.01016,-0.33672 1.79235,-1.42857 2.85715,-1.42857 1.06479,0 1.90476,0.95238 2.85714,1.42857 1.42857,0 2.87658,0.23485 4.28571,0 1.48536,-0.24756 2.80036,-1.18102 4.28572,-1.42857 1.40913,-0.23486 2.87658,0.23485 4.28571,0 1.48536,-0.24756 2.80036,-1.18102 4.28572,-1.42858 2.81826,-0.46971 5.75316,0.46972 8.57142,0 1.48536,-0.24756 2.77987,-1.42857 4.28572,-1.42857 1.50585,0 2.77987,1.42857 4.28571,1.42857 1.0648,0 1.79235,-1.42857 2.85715,-1.42857 1.06479,0 1.82414,1.17032 2.85714,1.42857 0.71957,0.1799 9.74039,0.0519 10,0 1.04412,-0.20882 1.82414,-1.17032 2.85714,-1.42857 0.92395,-0.23098 1.90476,0 2.85714,0 0.95239,0 1.90477,0 2.85715,0 5.71428,0 11.42857,0 17.14285,0 3.33334,0 6.66667,0 10,0 1.42858,0 2.8998,-0.34648 4.28572,0 1.033,0.25825 1.82414,1.17032 2.85714,1.42857 1.84789,0.46198 3.90727,-0.60233 5.71429,0 0.63887,0.21296 0.77524,1.26524 1.42857,1.42858 0.80115,0.20028 9.28052,-0.35974 10,0 0.42592,0.21295 -0.42592,1.21561 0,1.42857 1.14286,0.57143 3.14286,-0.57143 4.28571,0 0.60234,0.30117 0.75514,1.42857 1.42857,1.42857 0.4762,0 -0.47619,-1.42857 0,-1.42857 0.4762,0 0.4762,1.42857 0,1.42857 -0.47619,0 0,-0.95238 0,-1.42857"
       id="path2989"
       inkscape:connector-curvature="0" />
    <path
       style="fill:none;stroke:#000000;stroke-width:10;stroke-linecap:butt;stroke-linejoin:miter;stroke-miterlimit:4;stroke-opacity:1;stroke-dasharray:none"
       d="m 528.57143,203.79075 c -4.46555,-1.24836 -5.65678,-6.05705 -10,-7.14286 -0.92394,-0.23098 -1.95363,0.30117 -2.85714,0 -0.63888,-0.21296 -0.7897,-1.21561 -1.42857,-1.42857 -0.90351,-0.30117 -1.9332,0.23099 -2.85715,0 -1.033,-0.25825 -1.84699,-1.09185 -2.85714,-1.42857 -0.45175,-0.15058 -1.00265,0.21296 -1.42857,0 -0.60234,-0.30117 -0.75514,-1.42857 -1.42857,-1.42857 -0.67344,0 -0.75514,1.42857 -1.42857,1.42857 -0.67344,0 -0.75514,-1.42857 -1.42858,-1.42857 -1.06479,0 -1.84699,1.09185 -2.85714,1.42857 -0.45175,0.15059 -0.97682,-0.15058 -1.42857,0 -1.01015,0.33672 -1.84699,1.09185 -2.85714,1.42857 -0.45176,0.15059 -0.97682,-0.15058 -1.42857,0 -1.01016,0.33672 -1.90477,0.95238 -2.85715,1.42857 -0.95238,0.47619 -2.10422,0.67565 -2.85714,1.42858 -0.75292,0.75292 -0.67565,2.10421 -1.42857,2.85714 -2.03723,2.03722 -4.91129,1.18347 -7.14286,2.85714 -0.85183,0.63888 -0.78969,2.00531 -1.42857,2.85714 -0.80812,1.0775 -2.01576,1.80542 -2.85714,2.85715 -1.07256,1.34069 -1.64309,3.07166 -2.85715,4.28571 -0.75292,0.75292 -2.10422,0.67565 -2.85714,1.42857 -0.75292,0.75293 -0.67565,2.10422 -1.42857,2.85715 -0.75292,0.75292 -3.61007,2.18149 -2.85714,1.42857 0.3137,-0.31371 5.76283,-5.56865 7.14285,-1.42857 0.15358,0.46072 -2.53374,4.4207 -2.85714,5.71428 -0.23098,0.92395 0,1.90476 0,2.85714 0,0.95238 0,1.90477 0,2.85715 0,0.95238 -0.67343,3.53057 0,2.85714 1.96339,-1.96338 2.32233,-5.17947 4.28572,-7.14286 0.47619,-0.47619 1.21561,0.7897 1.42857,1.42857 0.30117,0.90351 -0.30117,1.95364 0,2.85715 0.21296,0.63887 1.26524,0.77524 1.42857,1.42857 0.34648,1.38592 -0.45176,2.93045 0,4.28571 0.15058,0.45176 1.27799,-0.45175 1.42857,0 0.45175,1.35526 -0.28017,2.88489 0,4.28572 0.20882,1.04411 0.95238,1.90476 1.42857,2.85714 0.47619,0.95238 0.83793,1.97118 1.42857,2.85714 0.37356,0.56033 1.05502,0.86824 1.42857,1.42857 0.59065,0.88597 0.83793,1.97118 1.42858,2.85715 0.40368,0.60552 3.69464,3.99018 4.28571,4.28571 1.52311,0.76155 6.78096,-1.42857 7.14286,-1.42857 0.67343,0 0.82623,1.1274 1.42857,1.42857 0.42592,0.21296 0.95238,0 1.42857,0 0.95238,0 1.90476,0 2.85714,0 2.38096,0 4.76191,0 7.14286,0 2.85714,0 5.71429,0 8.57143,0 0.95238,0 1.95363,0.30117 2.85714,0 0.63888,-0.21296 0.7897,-1.21561 1.42857,-1.42857 0.90351,-0.30117 1.9332,0.23099 2.85715,0 2.066,-0.5165 3.69398,-2.18371 5.71428,-2.85714 0.45176,-0.15059 0.95238,0 1.42857,0 1.90477,0 3.83544,0.31314 5.71429,0 2.97838,-0.4964 3.54793,-2.84148 5.71428,-4.28572 0.88597,-0.59064 2.10422,-0.67565 2.85715,-1.42857 0.33671,-0.33672 -0.21296,-1.00265 0,-1.42857 1.08751,-2.17502 2.85714,-0.83647 2.85714,-4.28571 0,-0.67344 -1.72974,-0.82624 -1.42857,-1.42858 0.47619,-0.95238 2.10422,-0.67564 2.85714,-1.42857 2.89035,-2.89034 0.41455,-4.10077 1.42857,-7.14285 2.10201,-6.30602 1.42857,5.19023 1.42857,-4.28572 0,-3.33333 0,-6.66667 0,-10 0,-0.47619 0,-0.95238 0,-1.42857 0,-0.47619 0.21296,-1.00265 0,-1.42857 -0.30116,-0.60234 -1.42857,-0.75514 -1.42857,-1.42857 0,-2.05136 4.11606,-4.81846 1.42857,-5.71429 -1.42857,-0.47619 -2.82482,1.06335 -4.28571,1.42857 -0.46197,0.1155 -0.95238,0 -1.42857,0 -0.95238,0 -2.18371,0.67344 -2.85714,0 -0.67344,-0.67343 0,-1.90476 0,-2.85714 0,-0.47619 0,0.95238 0,1.42857 0,1.42857 0,2.85714 0,4.28572 0,1.23797 -0.27585,4.88675 0,5.71428 1.85449,5.56347 1.42857,0.13364 1.42857,5.71429 0,0.47619 -0.15059,0.97681 0,1.42857 0.33671,1.01015 1.42857,1.79235 1.42857,2.85714 0,0.67344 -1.42857,0.75514 -1.42857,1.42857 0,0.67344 1.21561,0.7897 1.42857,1.42857 0.256,0.76801 0,4.50479 0,5.71429 0,4.28571 0,8.57143 0,12.85714 0,1.22619 0.27861,7.7356 0,8.57143 -0.21296,0.63888 -1.1274,0.82623 -1.42857,1.42857 -0.21296,0.42592 0.42592,1.21561 0,1.42857 -0.85184,0.42592 -2.18371,-0.67343 -2.85715,0 -0.67343,0.67344 0.30117,1.95364 0,2.85715 -0.21295,0.63887 -1.1274,0.82623 -1.42857,1.42857 -0.21296,0.42592 0.21296,1.00265 0,1.42857 -0.30117,0.60234 -1.21561,0.78969 -1.42857,1.42857 -0.30117,0.90351 0.42592,2.00531 0,2.85714 -0.21296,0.42592 -1.27799,-0.45175 -1.42857,0 -0.45175,1.35527 0.34648,2.8998 0,4.28572 -0.16333,0.65333 -1.1274,0.82623 -1.42857,1.42857 -0.21296,0.42592 0.15058,0.97682 0,1.42857 -0.33672,1.01015 -1.17032,1.82414 -1.42857,2.85714 -0.23099,0.92395 0.30117,1.95364 0,2.85715 -0.24352,0.73055 -5.61411,4.65157 -4.28572,5.71428 2.35174,1.88139 5.98893,1.30764 8.57143,2.85715 0.57747,0.34647 -0.95238,0.95238 -1.42857,1.42857 -0.47619,0.47619 -0.95238,0.95238 -1.42857,1.42857 -0.47619,0.47619 -1.1274,0.82623 -1.42857,1.42857 -0.42592,0.85183 0.42592,2.00531 0,2.85714 -0.38149,0.76298 -3.53362,3.53362 -4.28572,4.28572 -1.42857,1.42857 -2.85714,2.85714 -4.28571,4.28571 -0.95238,0.95238 -1.73648,2.11003 -2.85714,2.85714 0.16268,2.70633 -3.33334,0.95238 -4.28572,1.42858 -0.60234,0.30116 -0.82623,1.1274 -1.42857,1.42857 -0.85184,0.42591 -1.95363,-0.30117 -2.85714,0 -2.59461,0.86487 -2.65121,1.22264 -4.28572,2.85714 -0.47619,0.47619 -0.82623,1.1274 -1.42857,1.42857 -0.42592,0.21296 -0.97682,-0.15058 -1.42857,0 -1.01015,0.33672 -1.84699,1.09185 -2.85714,1.42857 -0.45176,0.15059 -0.97682,-0.15058 -1.42857,0 -1.01016,0.33672 -1.82414,1.17032 -2.85715,1.42857 -1.38591,0.34648 -2.93045,-0.45175 -4.28571,0 -1.01015,0.33672 -1.84699,1.09186 -2.85714,1.42858 -0.45176,0.15058 -0.97682,-0.15059 -1.42858,0 -1.01015,0.33671 -1.84699,1.09185 -2.85714,1.42857 -0.83183,0.27727 -7.58847,0 -8.57143,0 -3.33333,0 -6.66666,0 -10,0 -0.33947,0 -5.3941,0.16009 -5.71428,0 -0.60234,-0.30117 -0.7897,-1.21562 -1.42857,-1.42857 -0.90351,-0.30117 -1.9332,0.23098 -2.85715,0 -1.033,-0.25826 -1.84699,-1.09186 -2.85714,-1.42858 -0.90351,-0.30117 -2.00531,0.42592 -2.85714,0 -0.60234,-0.30117 -0.7897,-1.21561 -1.42857,-1.42857 -1.80702,-0.60234 -3.90727,0.60234 -5.71429,0 -0.63888,-0.21296 -0.82623,-1.1274 -1.42857,-1.42857 -0.85184,-0.42592 -2.00531,0.42592 -2.85714,0 -0.60234,-0.30117 -0.82624,-1.1274 -1.42858,-1.42857 -0.56641,-0.28321 -3.99366,0.29205 -4.28571,0 -0.33672,-0.33672 0.47619,-1.42857 0,-1.42857 -0.67343,0 -0.75514,1.42857 -1.42857,1.42857 -0.47619,0 -0.47619,-1.42857 0,-1.42857 0.47619,0 0.47619,1.42857 0,1.42857 -0.47619,0 -0.47619,-1.42857 0,-1.42857 0.47619,0 0,0.95238 0,1.42857"
       id="path2993"
       inkscape:connector-curvature="0" />
    <path
       style="fill:none;stroke:#000000;stroke-width:10;stroke-linecap:butt;stroke-linejoin:miter;stroke-miterlimit:4;stroke-opacity:1;stroke-dasharray:none"
       d="m 637.54981,205.18172 c -0.0724,-2.28804 -5.89653,-2.05319 -7.28781,-3.92775 -0.21727,-0.29275 0.34355,-0.75048 0,-0.98193 -0.7682,-0.51753 -2.01118,-0.57596 -2.91512,-0.98194 -0.5717,-0.25676 -0.88586,-0.72517 -1.45756,-0.98193 -10.56816,-3.5598 2.30461,1.03505 -4.37268,-1.96388 -7.36332,-3.30703 -0.0338,-0.008 -4.37269,-0.98193 -1.03065,-0.23145 -1.88447,-0.75049 -2.91512,-0.98194 -0.46093,-0.1035 -0.97171,0 -1.45756,0 -0.97171,0 -1.94341,0 -2.91513,0 -0.76218,0 -5.44699,-0.12909 -5.83024,0 -0.61456,0.20702 -0.80572,0.83556 -1.45756,0.98194 -0.92184,0.20701 -1.97243,-0.15877 -2.91513,0 -1.05396,0.17751 -1.88447,0.75049 -2.91512,0.98193 -0.46092,0.10351 -1.94341,0 -1.45756,0 1.94341,0 3.88683,0 5.83025,0 0.48585,0 -1.05331,-0.18155 -1.45757,0 -0.0905,0.0406 -7.11821,4.56693 -7.2878,4.90968 -0.30728,0.62104 0.30728,1.34284 0,1.96387 -0.21728,0.43914 -1.07643,0.59679 -1.45756,0.98194 -0.60263,0.60897 -0.85493,1.3549 -1.45757,1.96387 -0.38113,0.38515 -0.9717,0.65463 -1.45756,0.98194 -0.9717,0.65462 -2.15285,1.19358 -2.91512,1.96387 -0.2695,0.27234 0.21728,0.68917 0,0.98193 -0.30728,0.41402 -1.07643,0.59679 -1.45756,0.98194 -4.90887,4.96055 -0.0112,0.0228 -1.45756,2.94581 -0.34355,0.69433 -0.85493,1.3549 -1.45756,1.96387 -0.38114,0.38514 -1.24029,0.5428 -1.45757,0.98193 -0.46091,0.93155 0.46093,2.01426 0,2.94581 -0.48585,0.65463 -0.9717,1.30925 -1.45756,1.96387 0,0.32731 0.15365,0.67143 0,0.98194 -0.34354,0.69433 -1.19407,1.25383 -1.45756,1.96387 -0.23566,0.63508 0,1.30925 0,1.96387 0,2.29118 0,4.58236 0,6.87355 0,0.63188 -0.24659,6.20903 0,6.87355 0.26349,0.71004 1.19407,1.25383 1.45756,1.96387 0.23568,0.63508 -0.38277,1.36218 0,1.96387 1.11598,1.75423 2.80123,3.32168 4.37269,4.90968 0.38113,0.38515 1.24028,0.5428 1.45756,0.98194 0.30728,0.62103 -0.30728,1.34284 0,1.96387 0.21728,0.43913 1.15028,0.56792 1.45756,0.98194 0.21728,0.29275 -0.15363,0.67141 0,0.98193 3.51925,7.11256 -0.42022,-1.54813 2.91512,2.94581 0.21728,0.29275 -0.21728,0.68917 0,0.98193 1.11619,1.50391 2.5974,0.76789 4.37269,1.96388 0.34355,0.23144 -0.21728,0.68917 0,0.98193 0.30728,0.41402 0.97171,0.65462 1.45756,0.98194 0.48585,0.32731 0.843,0.77492 1.45756,0.98193 0.43456,0.14638 1.023,-0.14638 1.45756,0 0.61456,0.20701 0.843,0.77492 1.45756,0.98193 0.43456,0.14638 0.99664,-0.1035 1.45756,0 1.03066,0.23145 1.88447,0.75049 2.91513,0.98194 0.46092,0.10351 0.99663,-0.1035 1.45756,0 1.03065,0.23145 1.88447,0.75049 2.91512,0.98193 0.46093,0.10351 0.97171,0 1.45756,0 0.97171,0 1.94342,0 2.91513,0 0.97171,0 1.94341,0 2.91512,0 0.48585,0 1.023,0.14638 1.45756,0 0.61456,-0.20701 0.843,-0.77492 1.45756,-0.98193 0.43456,-0.14638 0.97171,0 1.45756,0 0.97171,0 1.99328,0.20701 2.91513,0 1.44246,-0.32392 2.1012,-2.32942 2.91512,-1.96387 1.45756,0.65462 1.25325,3.319 2.91512,2.9458 1.90043,-0.42675 0.90723,-2.63012 1.45756,-3.92773 0.42208,-0.99523 0.77046,-2.02004 1.45756,-2.94582 0.64595,-0.87032 3.48813,-2.05193 4.37269,-2.9458 0.60262,-0.60897 0.68936,-1.44635 1.45756,-1.96387 0.7682,-0.51753 2.01118,-0.57595 2.91512,-0.98193 0.59881,-0.26894 3.97348,-2.54241 4.37269,-2.94581 0.60262,-0.60897 0.85493,-1.3549 1.45756,-1.96387 0.76227,-0.7703 2.15285,-1.19358 2.91512,-1.96387 1.20525,-1.21795 1.70987,-2.70981 2.91512,-3.92775 0.38114,-0.38514 1.24029,-0.5428 1.45757,-0.98193 0.30728,-0.62104 -0.30728,-1.34285 0,-1.96387 0.21727,-0.43914 1.24028,-0.54281 1.45756,-0.98194 0.30728,-0.62103 -0.30728,-1.34284 0,-1.96387 0.21728,-0.43914 1.24028,-0.5428 1.45756,-0.98194 0,-4.47005 -0.68711,-0.0562 1.45756,-2.9458 0.21728,-0.29276 0,-0.65463 0,-0.98194 0,-0.41306 -0.21679,-5.59951 0,-5.89161 0.30728,-0.41402 1.45756,-0.51905 1.45756,-0.98194 0,-0.73189 -1.11401,-1.26954 -1.45756,-1.96387 -0.30728,-0.62103 0.43456,-1.37836 0,-1.96387 -0.30728,-0.41402 -1.15028,-0.56792 -1.45756,-0.98194 -0.32429,-0.43694 0.22222,-3.47862 0,-3.92774 -0.21728,-0.43914 -1.15028,-0.56792 -1.45756,-0.98194 -0.21728,-0.29275 0.21728,-0.68917 0,-0.98193 -0.30728,-0.41402 -1.24029,-0.54281 -1.45756,-0.98194 -0.30728,-0.62103 0,-1.30925 0,-1.96387 0,-0.32731 0.21727,-0.68918 0,-0.98194 -0.30728,-0.41402 -1.15029,-0.56791 -1.45757,-0.98193 -0.21727,-0.29276 0.34355,-0.75049 0,-0.98194 -0.34355,-0.23144 -1.11401,0.23145 -1.45756,0 -0.34355,-0.23144 0.21728,-0.68917 0,-0.98193 -0.30728,-0.41402 -0.97171,-0.65462 -1.45756,-0.98194 -0.48586,-0.32731 -0.843,-0.77493 -1.45756,-0.98193 -0.43457,-0.14638 -0.97171,0 -1.45756,0 -2.42927,0 -4.85855,0 -7.28781,0 z"
       id="path2995"
       inkscape:connector-curvature="0" />
    <path
       style="fill:none;stroke:#000000;stroke-width:10;stroke-linecap:butt;stroke-linejoin:miter;stroke-miterlimit:4;stroke-opacity:1;stroke-dasharray:none"
       d="m 414.28572,193.79076 c -4.26947,-1.78516 -8.42494,-1.42858 -12.85715,-1.42858 -0.47619,0 -0.97681,0.15059 -1.42857,0 -0.59447,-0.19815 -2.99472,-2.07406 -4.28571,-1.42857 -0.60234,0.30117 -0.75514,1.42857 -1.42857,1.42857 -0.67344,0 -0.7897,-1.21561 -1.42857,-1.42857 -0.76801,-0.256 -4.50479,0 -5.71429,0 -0.60095,0 -8.14646,-0.21248 -8.57143,0 -0.60234,0.30117 -0.82623,1.1274 -1.42857,1.42857 -0.85184,0.42592 -2.00531,-0.42591 -2.85714,0 -0.60234,0.30117 -0.82624,1.12741 -1.42857,1.42858 -0.42592,0.21295 -1.00266,-0.21296 -1.42858,0 -0.60233,0.30116 -0.82623,1.1274 -1.42857,1.42857 -0.42591,0.21296 -1.00265,-0.21296 -1.42857,0 -0.60234,0.30117 -0.95238,0.95238 -1.42857,1.42857 -1.6345,1.6345 -1.6911,1.99227 -4.28571,2.85714 -0.85332,0.28444 -2.66862,-0.37704 -2.85715,0 -0.42591,0.85184 -0.52828,3.64957 0,2.85714 2.36257,-3.54385 3.35172,-7.88472 5.71429,-11.42857 0.52828,-0.79243 0.85183,2.43123 0,2.85715 -5.71429,2.85714 -1.42857,-7.14286 -1.42857,1.42857 0,2.05542 -5.30312,1.93727 -4.28572,1.42857 20.84206,-10.42103 8.10008,-3.34302 7.14286,-1.42857 -0.42592,0.85183 0.42592,2.0053 0,2.85714 -0.30117,0.60234 -1.21561,0.78969 -1.42857,1.42857 -0.44036,1.32109 0.47059,7.63024 0,8.57143 -0.5808,1.16159 -2.26614,1.18202 -1.42857,2.85714 0.30117,0.60234 1.21561,0.7897 1.42857,1.42857 0.27285,0.81856 0,5.80169 0,7.14286 0,0.47619 -0.15059,0.97682 0,1.42857 0.33672,1.01015 1.09185,1.84699 1.42857,2.85715 0.15058,0.45175 -0.15058,0.97681 0,1.42857 0.33672,1.01015 1.09185,1.84699 1.42857,2.85714 0.28101,0.84304 0,6.34468 0,7.14286 0,3.35025 -0.33672,-0.67344 1.42857,2.85714 0.21296,0.42592 0,0.95238 0,1.42857 0,0.47619 0,0.95238 0,1.42857 0,0.47619 -0.47619,1.42857 0,1.42857 0.67344,0 0.75514,-1.42857 1.42857,-1.42857 0.47619,0 -0.21295,1.00266 0,1.42857 1.76529,3.53058 1.42858,-0.49311 1.42858,2.85715 0,0.47619 -0.0783,1.89828 0,1.42857 0.55356,-3.32136 1.42857,-6.63283 1.42857,-10 0,-0.0276 -2.22915,1.256 -1.42857,2.85714 0.39688,0.79377 2.85714,2.39651 2.85714,2.85714 0,0.47619 -1.09186,-0.33671 -1.42857,0 -0.33672,0.33672 -0.33672,1.09186 0,1.42858 3.52381,3.5238 4.38095,-0.38096 8.57143,-1.42858 0.46197,-0.11549 -0.33672,1.09186 0,1.42858 0.33671,0.33671 1.09185,-0.33672 1.42857,0 0.67343,0.67343 -0.42592,2.0053 0,2.85714 0.30117,0.60234 0.82623,1.1274 1.42857,1.42857 0.42592,0.21296 1.42857,-0.47619 1.42857,0 0,0.67343 -1.42857,0.75514 -1.42857,1.42857 0,0.47619 1.09185,-0.33672 1.42857,0 0.33672,0.33672 -0.21296,1.00265 0,1.42857 2.97269,5.94537 -0.0986,-1.52719 2.85714,1.42857 0.33672,0.33672 -0.21296,1.00266 0,1.42858 0.30117,0.60233 0.95238,0.95238 1.42857,1.42857 0.47619,0.47619 0.82624,1.1274 1.42858,1.42857 0.42591,0.21296 1.09185,-0.33672 1.42857,0 0.75292,0.75292 0.67565,2.10422 1.42857,2.85714 0.33672,0.33672 1.00265,-0.21296 1.42857,0 0.60234,0.30117 0.82623,1.1274 1.42857,1.42857 0.85184,0.42592 2.00531,-0.42592 2.85714,0 0.60234,0.30117 0.82624,1.1274 1.42858,1.42857 0.85052,0.42526 5.94009,-0.40092 7.14285,0 1.01016,0.33672 1.84699,1.09186 2.85715,1.42858 0.48934,0.16311 5.22493,0.16311 5.71428,0 1.01015,-0.33672 1.84699,-1.09186 2.85714,-1.42858 0.45176,-0.15058 0.97682,0.15059 1.42858,0 1.01015,-0.33671 1.84699,-1.09185 2.85714,-1.42857 0.45175,-0.15058 1.00265,0.21296 1.42857,0 0.60234,-0.30117 0.82623,-1.1274 1.42857,-1.42857 1.46823,-0.73411 3.29493,1.42857 4.28572,1.42857 0.67343,0 0.82623,-1.1274 1.42857,-1.42857 1.27775,-0.63888 3.00796,0.63888 4.28571,0 0.42592,-0.21296 -0.33672,-1.09185 0,-1.42857 0.33672,-0.33672 0.97682,0.15058 1.42857,0 1.01016,-0.33672 2.10422,-0.67565 2.85715,-1.42857 0.33671,-0.33672 -0.21296,-1.00266 0,-1.42857 2.97268,-5.94538 -0.0986,1.52719 2.85714,-1.42857 0.33672,-0.33672 -0.33672,-1.09186 0,-1.42858 2.95576,-2.95576 -0.11554,4.5168 2.85714,-1.42857 0.21296,-0.42592 -0.21296,-1.00265 0,-1.42857 0.60234,-1.20468 2.25481,-1.65246 2.85714,-2.85714 0.42592,-0.85184 -0.42591,-2.00531 0,-2.85714 0.30117,-0.60234 1.12741,-0.82624 1.42858,-1.42858 0.42591,-0.85183 -0.42592,-2.0053 0,-2.85714 0.30117,-0.60234 1.1274,-0.82623 1.42857,-1.42857 0.21248,-0.42497 0,-7.97048 0,-8.57143 0,-0.47619 0.21296,-1.00265 0,-1.42857 -0.30117,-0.60234 -1.42857,-0.75514 -1.42857,-1.42857 0,-0.67344 1.42857,-0.75514 1.42857,-1.42857 0,-0.67344 -1.1274,-0.82624 -1.42857,-1.42857 -0.21296,-0.42592 0,-0.95239 0,-1.42858 0,-0.95238 0.30117,-1.95363 0,-2.85714 -0.21296,-0.63888 -1.05502,-0.86824 -1.42858,-1.42857 -0.59064,-0.88596 -1.09185,-1.84699 -1.42857,-2.85714 -0.15058,-0.45176 0,-0.95238 0,-1.42857 -0.47619,-0.4762 -1.1274,-0.82624 -1.42857,-1.42858 -0.21296,-0.42591 0.33672,-1.09185 0,-1.42857 -2.95576,-2.95576 0.11554,4.5168 -2.85714,-1.42857 -0.42592,-0.85183 0.67343,-2.18371 0,-2.85714 -0.33672,-0.33672 -1.09186,0.33672 -1.42857,0 -0.33672,-0.33672 0.21296,-1.00266 0,-1.42857 -0.18965,-0.3793 -3.90642,-4.09607 -4.28572,-4.28572 -0.42591,-0.21296 -1.09185,0.33672 -1.42857,0 -0.75292,-0.75292 -0.67565,-2.10422 -1.42857,-2.85714 -0.33672,-0.33672 -1.09185,0.33672 -1.42857,0 -0.33672,-0.33672 0.21296,-1.00265 0,-1.42857 -0.30117,-0.60234 -0.95238,-0.95238 -1.42857,-1.42857 -0.47619,-0.47619 -0.82624,-1.12741 -1.42857,-1.42857 -0.42592,-0.21296 -1.09186,0.33671 -1.42858,0 -0.33671,-0.33672 0.33672,-1.09186 0,-1.42858 -0.67343,-0.67343 -2.1837,0.67344 -2.85714,0 -0.33672,-0.33671 0.33672,-1.09185 0,-1.42857 -0.67343,-0.67343 -2.18371,0.67344 -2.85714,0 -0.33672,-0.33672 0.33672,-1.09185 0,-1.42857 -0.33672,-0.33672 -0.95238,0 -1.42857,0 -0.47619,0 -0.95238,0 -1.42857,0 -4.20522,0 -1.02025,-0.245 -8.57143,4.28572 z"
       id="path2997"
       inkscape:connector-curvature="0" />
  </g>
</svg>
